<svg width="24" height="24" viewBox="0 0 24 24" fill="none" xmlns="http://www.w3.org/2000/svg">
<path d="M18.877 12.907C18.9623 12.3053 18.9623 11.6946 18.877 11.093L20.829 9.56699C20.9145 9.49712 20.9725 9.39928 20.9928 9.29077C21.0131 9.18225 20.9944 9.07005 20.94 8.97399L19.089 5.77399C19.048 5.70267 18.9886 5.64363 18.917 5.60301C18.8454 5.56239 18.7643 5.54167 18.682 5.54299C18.6284 5.54224 18.5751 5.55174 18.525 5.57099L16.225 6.49599C15.747 6.12502 15.2213 5.81996 14.662 5.58899L14.31 3.13699C14.2947 3.02826 14.2402 2.92885 14.1568 2.85742C14.0734 2.78598 13.9668 2.74743 13.857 2.74899H10.157C10.047 2.74718 9.9402 2.78563 9.85659 2.85708C9.77298 2.92854 9.71836 3.02808 9.70301 3.13699L9.34701 5.58799C8.78878 5.82378 8.26315 6.13029 7.78301 6.49999L5.48301 5.57499C5.42962 5.55649 5.37352 5.54703 5.31701 5.54699C5.23583 5.5465 5.15598 5.56764 5.08568 5.60824C5.01538 5.64884 4.95716 5.70743 4.91701 5.77799L3.06601 8.97799C3.00933 9.07345 2.98933 9.18628 3.00976 9.29541C3.03018 9.40454 3.08964 9.5025 3.17701 9.57099L5.12901 11.097C5.08847 11.3963 5.06643 11.6979 5.06301 12C5.0656 12.3034 5.08698 12.6063 5.12701 12.907L3.17501 14.433C3.08954 14.5029 3.03152 14.6007 3.01121 14.7092C2.9909 14.8177 3.0096 14.9299 3.06401 15.026L4.91501 18.226C4.95606 18.2973 5.01545 18.3564 5.08702 18.397C5.15859 18.4376 5.23973 18.4583 5.32201 18.457C5.37565 18.4577 5.42894 18.4482 5.47901 18.429L7.77901 17.504C8.25725 17.8752 8.78331 18.1803 9.34301 18.411L9.70001 20.864C9.71536 20.9729 9.76998 21.0724 9.85359 21.1439C9.9372 21.2154 10.044 21.2538 10.154 21.252H13.854C13.9638 21.2536 14.0704 21.215 14.1538 21.1436C14.2372 21.0721 14.2917 20.9727 14.307 20.864L14.659 18.412C15.2166 18.1775 15.7418 17.8727 16.222 17.505L18.522 18.43C18.5757 18.4485 18.6322 18.458 18.689 18.458C18.7702 18.4585 18.85 18.4373 18.9203 18.3967C18.9906 18.3561 19.0489 18.2976 19.089 18.227L20.94 15.027C20.9944 14.9309 21.0131 14.8187 20.9928 14.7102C20.9725 14.6017 20.9145 14.5039 20.829 14.434L18.877 12.907ZM18.787 14.936L17.933 16.412L15.816 15.56L15.143 16.068C14.7847 16.3418 14.3937 16.5699 13.979 16.747L13.184 17.07L12.854 19.339H11.154L10.834 17.07L10.041 16.748C9.63251 16.5761 9.24716 16.3537 8.89401 16.086L8.20001 15.56L6.06701 16.42L5.21301 14.945L7.01901 13.534L6.91901 12.687C6.89101 12.395 6.87301 12.187 6.87301 12C6.87301 11.813 6.89101 11.6 6.91801 11.328L7.02401 10.474L5.21701 9.06399L6.07101 7.58899L8.18801 8.43999L8.86101 7.93199C9.21929 7.65817 9.6103 7.43008 10.025 7.25299L10.825 6.92999L11.156 4.66099H12.856L13.177 6.92999L13.969 7.25199C14.3778 7.42345 14.7635 7.64552 15.117 7.91299L15.801 8.43899L17.934 7.57999L18.787 9.05299L16.987 10.474L17.087 11.321C17.1177 11.546 17.1331 11.7729 17.133 12C17.133 12.193 17.115 12.4 17.088 12.672L16.982 13.525L18.787 14.936ZM12 14.544C11.4969 14.5436 11.0053 14.3941 10.5872 14.1143C10.1691 13.8345 9.84333 13.437 9.65109 12.9722C9.45885 12.5073 9.40875 11.9958 9.50714 11.5025C9.60553 11.0091 9.84797 10.556 10.2038 10.2004C10.5597 9.84482 11.013 9.60273 11.5064 9.50473C11.9999 9.40673 12.5113 9.45723 12.976 9.64984C13.4408 9.84244 13.838 10.1685 14.1174 10.5868C14.3969 11.0051 14.546 11.4969 14.546 12C14.5439 12.6744 14.2749 13.3206 13.7979 13.7972C13.3208 14.2739 12.6744 14.5424 12 14.544Z" fill="black"/>
</svg>
