<svg width="150" height="100" viewBox="0 0 150 100" fill="none" xmlns="http://www.w3.org/2000/svg">
<path fill-rule="evenodd" clip-rule="evenodd" d="M37.8 67H92.4C92.7089 67 93.0101 66.9722 93.3 66.9195C93.59 66.9722 93.8911 67 94.2 67H125.4C127.72 67 129.6 65.433 129.6 63.5C129.6 61.567 127.72 60 125.4 60H121.8C119.48 60 117.6 58.433 117.6 56.5C117.6 54.567 119.48 53 121.8 53H133.2C135.52 53 137.4 51.433 137.4 49.5C137.4 47.567 135.52 46 133.2 46H120C122.32 46 124.2 44.433 124.2 42.5C124.2 40.567 122.32 39 120 39H81.6C83.9196 39 85.8 37.433 85.8 35.5C85.8 33.567 83.9196 32 81.6 32H47.4C45.0804 32 43.2 33.567 43.2 35.5C43.2 37.433 45.0804 39 47.4 39H23.4C21.0804 39 19.2 40.567 19.2 42.5C19.2 44.433 21.0804 46 23.4 46H38.4C40.7196 46 42.6 47.567 42.6 49.5C42.6 51.433 40.7196 53 38.4 53H14.4C12.0804 53 10.2 54.567 10.2 56.5C10.2 58.433 12.0804 60 14.4 60H37.8C35.4804 60 33.6 61.567 33.6 63.5C33.6 65.433 35.4804 67 37.8 67ZM135.6 67C137.92 67 139.8 65.433 139.8 63.5C139.8 61.567 137.92 60 135.6 60C133.28 60 131.4 61.567 131.4 63.5C131.4 65.433 133.28 67 135.6 67Z" fill="#29AB56" fill-opacity="0.03"/>
<path fill-rule="evenodd" clip-rule="evenodd" d="M51.15 55.7561V69C51.15 69.4832 51.6201 69.875 52.2 69.875H97.8C98.3799 69.875 98.85 69.4832 98.85 69V55.7561L93.1533 41.7197C93.009 41.3642 92.6089 41.125 92.1586 41.125H57.8414C57.3911 41.125 56.991 41.3642 56.8468 41.7197L51.15 55.7561Z" stroke="#29AB56" stroke-width="2.5"/>
<path d="M58.8 55.5C61.1619 55.5 63.7109 55.5 66.4469 55.5C67.5727 55.5 67.5727 56.1593 67.5727 56.5C67.5727 59.8137 70.8704 62.5 74.9384 62.5C79.0063 62.5 82.304 59.8137 82.304 56.5C82.304 56.1593 82.304 55.5 83.4298 55.5H98.4M54.3442 55.5H55.8H54.3442Z" stroke="#29AB56" stroke-width="2.5" stroke-linecap="round" stroke-linejoin="round"/>
<path d="M90.0598 29.1514L83.4 35.3779M74.4598 27V35.3779V27ZM58.8 29.1514L65.4598 35.3779L58.8 29.1514Z" stroke="#29AB56" stroke-width="2.5" stroke-linecap="round" stroke-linejoin="round"/>
</svg>
