<svg width="24" height="24" viewBox="0 0 24 24" fill="none" xmlns="http://www.w3.org/2000/svg">
<path d="M18.9889 13.9821V7.52679C18.9085 6.30804 17.6496 6.84379 17.6496 6.84379C14.7166 8.23661 13.2869 7.46317 11.7902 7.00004C10.8863 6.72207 9.93089 6.65347 8.99647 6.79942L8.98701 6.80342C8.94927 6.41817 8.79986 6.05233 8.55713 5.75079C8.3144 5.44926 7.98891 5.22516 7.62061 5.106C7.56404 5.08248 7.5054 5.06429 7.44544 5.05168C7.42097 5.04618 7.39662 5.04136 7.37184 5.03678C7.31241 5.01863 7.25135 5.00631 7.18952 5H6.82411C6.76229 5.00631 6.70123 5.01864 6.64179 5.0368C6.61707 5.04138 6.59272 5.0462 6.56831 5.05164C6.50834 5.06428 6.44967 5.08248 6.39308 5.10602C6.04328 5.21681 5.73101 5.42235 5.49093 5.69983C5.25085 5.97731 5.09234 6.31588 5.03299 6.67797C4.97364 7.04007 5.01577 7.41153 5.1547 7.75113C5.29364 8.09074 5.52395 8.38521 5.82008 8.60187V17.9959C5.82006 18.1277 5.84602 18.2583 5.89647 18.3801C5.94692 18.502 6.02088 18.6127 6.11411 18.7059C6.20735 18.7991 6.31804 18.8731 6.43986 18.9236C6.56168 18.974 6.69225 19 6.82411 19H7.18952C7.32138 19 7.45195 18.974 7.57378 18.9236C7.6956 18.8731 7.80629 18.7992 7.89953 18.7059C7.99277 18.6127 8.06673 18.502 8.11719 18.3802C8.16765 18.2583 8.19362 18.1278 8.19361 17.9959V15.5223C11.8358 14.4241 13.3907 16.1652 15.2925 16.0982C16.4614 16.0956 17.5999 15.7254 18.547 15.0402C18.7 14.9121 18.82 14.7491 18.8969 14.565C18.9738 14.3809 19.0054 14.181 18.9889 13.9821Z" fill="black"/>
</svg>
