<svg width="24" height="24" viewBox="0 0 24 24" fill="none" xmlns="http://www.w3.org/2000/svg">
<path d="M20.7388 15.4593C20.4356 15.0289 20.0387 14.6729 19.5779 14.4183C19.117 14.1637 18.6044 14.017 18.0786 13.9894C17.5529 13.9618 17.0277 14.054 16.5428 14.259C16.0578 14.4639 15.6258 14.7764 15.2792 15.1727L9.56604 12.5086C9.61233 12.1722 9.60939 11.8309 9.55731 11.4953L15.2791 8.82722C15.8443 9.47011 16.6225 9.88763 17.4707 10.0032C18.319 10.1187 19.1805 9.9245 19.8971 9.4562C20.6137 8.98791 21.1375 8.27691 21.3723 7.45366C21.6071 6.6304 21.5372 5.75009 21.1754 4.97423C20.8136 4.19836 20.1841 3.57896 19.4025 3.22967C18.621 2.88037 17.7396 2.8246 16.9203 3.07259C16.1009 3.32058 15.3984 3.85569 14.9417 4.57977C14.485 5.30384 14.3046 6.16831 14.4338 7.0146L8.7096 9.68391C8.2372 9.15001 7.61338 8.77269 6.92119 8.60218C6.229 8.43166 5.50129 8.47605 4.83496 8.72944C4.16862 8.98282 3.59529 9.43317 3.19128 10.0205C2.78728 10.6079 2.57179 11.3044 2.5735 12.0172C2.5752 12.7301 2.79403 13.4256 3.20084 14.011C3.60765 14.5964 4.18313 15.044 4.85067 15.2942C5.51821 15.5444 6.24612 15.5853 6.93749 15.4115C7.62885 15.2376 8.25087 14.8573 8.7207 14.3212L14.4339 16.9853C14.3506 17.5517 14.4075 18.1299 14.5998 18.6691C14.792 19.2083 15.1137 19.6921 15.5366 20.078C15.9595 20.4639 16.4706 20.7401 17.0251 20.8824C17.5797 21.0246 18.1606 21.0286 18.7171 20.8939C19.2735 20.7593 19.7883 20.4901 20.2164 20.11C20.6445 19.7299 20.9728 19.2505 21.1724 18.714C21.372 18.1774 21.4369 17.6001 21.3613 17.0326C21.2857 16.4651 21.0719 15.9249 20.7388 15.4593ZM18.0074 5.01057C18.3032 5.03362 18.5854 5.14386 18.8185 5.32734C19.0517 5.51082 19.2251 5.75931 19.317 6.04138C19.4089 6.32345 19.4151 6.62643 19.3348 6.91201C19.2545 7.19759 19.0913 7.45295 18.8658 7.64578C18.6404 7.83862 18.3628 7.96027 18.0683 7.99536C17.7737 8.03045 17.4753 7.97741 17.2109 7.84293C16.9465 7.70844 16.7279 7.49857 16.5827 7.23985C16.4376 6.98113 16.3724 6.68517 16.3955 6.38941C16.4264 5.99281 16.6136 5.62473 16.9159 5.36615C17.2182 5.10757 17.6108 4.97966 18.0074 5.01057ZM5.99231 13.4954C5.69656 13.4723 5.41429 13.3621 5.18119 13.1786C4.94809 12.9951 4.77463 12.7466 4.68276 12.4646C4.59088 12.1825 4.58471 11.8795 4.66502 11.5939C4.74533 11.3084 4.90853 11.053 5.13396 10.8602C5.35939 10.6674 5.63694 10.5457 5.93151 10.5107C6.22607 10.4756 6.52443 10.5286 6.78885 10.6631C7.05326 10.7976 7.27186 11.0075 7.417 11.2662C7.56214 11.5249 7.62731 11.8208 7.60425 12.1166C7.58895 12.313 7.53512 12.5044 7.44583 12.68C7.35654 12.8555 7.23354 13.0118 7.08386 13.1398C6.93417 13.2679 6.76073 13.3652 6.57344 13.4262C6.38616 13.4872 6.18869 13.5107 5.99231 13.4954ZM17.7744 18.9894C17.4787 18.9663 17.1964 18.8561 16.9633 18.6726C16.7302 18.4891 16.5567 18.2406 16.4648 17.9586C16.3729 17.6765 16.3667 17.3735 16.447 17.0879C16.5273 16.8024 16.6905 16.547 16.916 16.3542C17.1414 16.1613 17.4189 16.0397 17.7135 16.0046C18.0081 15.9695 18.3065 16.0225 18.5709 16.157C18.8353 16.2915 19.0539 16.5014 19.1991 16.7601C19.3442 17.0188 19.4094 17.3148 19.3864 17.6105C19.371 17.8069 19.3172 17.9983 19.2279 18.1739C19.1386 18.3495 19.0156 18.5057 18.866 18.6338C18.7163 18.7618 18.5428 18.8591 18.3556 18.9201C18.1683 18.9811 17.9708 19.0046 17.7744 18.9893V18.9894Z" fill="black"/>
</svg>
