<svg width="24" height="24" viewBox="0 0 24 24" fill="none" xmlns="http://www.w3.org/2000/svg">
<path d="M12.3999 5C8.2999 5 4.8999 8.4 4.8999 12.5C4.8999 16.6 8.2999 20 12.3999 20H16.1999V18.5H12.3999C9.0999 18.5 6.3999 15.8 6.3999 12.5C6.3999 9.2 9.0999 6.5 12.3999 6.5C15.6999 6.5 18.3999 9.2 18.3999 12.5V13.6C18.3999 14.2 17.8999 14.8 17.2999 14.8C16.6999 14.8 16.1999 14.2 16.1999 13.6V12.5C16.1999 10.4 14.4999 8.7 12.3999 8.7C10.2999 8.7 8.6999 10.4 8.6999 12.5C8.6999 14.6 10.3999 16.3 12.4999 16.3C13.4999 16.3 14.4999 15.9 15.1999 15.2C15.6999 15.9 16.4999 16.3 17.3999 16.3C18.8999 16.3 19.9999 15.1 19.9999 13.6V12.5C19.8999 8.4 16.5999 5 12.3999 5ZM12.3999 14.7C11.1999 14.7 10.0999 13.7 10.0999 12.5C10.0999 11.3 11.0999 10.2 12.3999 10.2C13.6999 10.2 14.6999 11.2 14.6999 12.5C14.6999 13.8 13.5999 14.7 12.3999 14.7Z" fill="black"/>
</svg>
