<svg width="24" height="24" viewBox="0 0 24 24" fill="none" xmlns="http://www.w3.org/2000/svg">
<g id="Icon=Superscript">
<path id="Vector" d="M10.4 12L14 15.6L12.6 17L9 13.4L5.4 17L4 15.6L7.6 12L4 8.39999L5.4 6.99999L9 10.6L12.6 6.99999L14 8.39999L10.4 12ZM19.3123 8.67399L20.3805 7.52749C20.5765 7.32608 20.7514 7.1201 20.9173 6.91869C21.077 6.72452 21.2214 6.51823 21.3493 6.30169C21.469 6.10152 21.567 5.8892 21.6418 5.66829C21.7128 5.45337 21.7488 5.22843 21.7484 5.00208C21.7514 4.72071 21.6994 4.44146 21.5953 4.18002C21.4968 3.93428 21.3427 3.71468 21.1451 3.53842C20.9353 3.35487 20.6899 3.21651 20.4242 3.13196C19.7861 2.94191 19.1044 2.95753 18.4757 3.17661C18.1887 3.28506 17.9282 3.45381 17.712 3.67148C17.5032 3.88006 17.3413 4.13081 17.2372 4.40696C17.1371 4.67345 17.0844 4.95534 17.0813 5.23996L17.0777 5.47696H18.617L18.6234 5.24999C18.625 5.12333 18.643 4.99741 18.6772 4.87541C18.7105 4.76834 18.7637 4.66848 18.8339 4.58104C18.905 4.50068 18.9935 4.43769 19.0928 4.39694C19.3173 4.30795 19.5665 4.30277 19.7946 4.38236C19.8768 4.41844 19.9501 4.47194 20.0096 4.53915C20.0704 4.61089 20.1171 4.69344 20.1473 4.78248C20.1829 4.89072 20.2014 5.00389 20.202 5.11786C20.2008 5.20745 20.1901 5.29667 20.17 5.38398C20.1409 5.48826 20.0993 5.58863 20.046 5.68291C19.9687 5.81912 19.8807 5.94894 19.7827 6.07114C19.6483 6.24579 19.505 6.4134 19.3534 6.57331L17.1971 8.92641V9.99999H22V8.67399H19.3123Z" fill="black"/>
</g>
</svg>
