<svg width="24" height="24" viewBox="0 0 24 24" fill="none" xmlns="http://www.w3.org/2000/svg">
<path d="M15.775 16.9888C16.5955 16.2693 17.2643 15.3934 17.7425 14.4123C18.1625 13.4423 18.3684 12.393 18.3459 11.3362C18.3806 10.4936 18.24 9.65291 17.933 8.86747C17.6259 8.08204 17.1591 7.36892 16.5621 6.77329C15.9651 6.17765 15.2509 5.71248 14.4648 5.40723C13.6787 5.10198 12.8377 4.96331 11.9952 5C11.1486 4.9658 10.3042 5.10736 9.51503 5.41577C8.7259 5.72417 8.00922 6.19271 7.41018 6.79187C6.81778 7.41623 6.35704 8.15338 6.05537 8.95946C5.75369 9.76553 5.61726 10.6241 5.65418 11.4839C5.63926 12.5091 5.85169 13.5248 6.27618 14.4581C6.75064 15.4232 7.4133 16.2836 8.22518 16.9888H5.41455V19H10.9557V18.9567H10.9542V16.8411C10.0285 16.3118 9.26577 15.5386 8.74902 14.6059C8.22414 13.6369 7.95814 12.5489 7.97675 11.447C7.91832 10.2617 8.31185 9.09833 9.07788 8.19191C9.44478 7.78657 9.89624 7.46679 10.4003 7.25518C10.9045 7.04357 11.4489 6.94529 11.9952 6.96729C12.5396 6.94724 13.0819 7.04546 13.5847 7.2552C14.0875 7.46493 14.5388 7.78119 14.9076 8.18218C15.6726 9.0501 16.0724 10.1802 16.0233 11.3362C16.0491 12.4648 15.7899 13.5817 15.2695 14.5835C14.7507 15.5267 13.9811 16.308 13.0459 16.8411V18.9567H13.0444V19H18.5855V16.9888H15.775Z" fill="black"/>
</svg>
