<svg width="24" height="24" viewBox="0 0 24 24" fill="none" xmlns="http://www.w3.org/2000/svg">
<path d="M8.97496 7.47489C9.27163 7.47489 9.56164 7.56286 9.80831 7.72768C10.055 7.89251 10.2472 8.12677 10.3608 8.40086C10.4743 8.67495 10.504 8.97655 10.4461 9.26752C10.3883 9.55849 10.2454 9.82577 10.0356 10.0355C9.82584 10.2453 9.55856 10.3882 9.26759 10.4461C8.97662 10.5039 8.67502 10.4742 8.40093 10.3607C8.12684 10.2472 7.89257 10.0549 7.72775 9.80824C7.56293 9.56157 7.47495 9.27156 7.47495 8.97489C7.47495 8.57706 7.63299 8.19553 7.91429 7.91423C8.1956 7.63292 8.57713 7.47489 8.97496 7.47489ZM12.7636 4.34776L16.5363 8.12041L16.8719 8.45605L19.6423 11.2264C20.0185 11.6035 20.2305 12.1138 20.2323 12.6464C20.2335 12.9078 20.1824 13.1667 20.0818 13.408C19.9813 13.6492 19.8334 13.8679 19.6469 14.051L19.6473 14.0514L14.0515 19.6472L14.0511 19.6468C13.868 19.8333 13.6493 19.9812 13.4081 20.0817C13.1668 20.1823 12.9079 20.2335 12.6465 20.2322C12.3849 20.2331 12.1257 20.1823 11.8837 20.0828C11.6417 19.9832 11.4218 19.8369 11.2365 19.6522L8.4561 16.8718L8.12046 16.5362L4.35782 12.7736C4.17047 12.5877 4.02185 12.3664 3.92058 12.1227C3.8193 11.8789 3.76738 11.6175 3.76783 11.3536V9.36358V5.76776C3.76935 5.23779 3.98056 4.72997 4.3553 4.35523C4.73004 3.98049 5.23786 3.76928 5.76782 3.76776H9.36365H11.3536C11.6152 3.76687 11.8745 3.81765 12.1164 3.91718C12.3584 4.01671 12.5783 4.16304 12.7636 4.34776ZM15.4619 9.866L15.1263 9.53036L11.3636 5.76776H5.76781V11.3636L9.86606 15.4619L12.6455 18.2413L18.2333 12.6374L18.2323 12.6364L15.4619 9.866Z" fill="black"/>
</svg>
