<svg width="53" height="26" viewBox="0 0 53 26" fill="none" xmlns="http://www.w3.org/2000/svg">
<rect width="53" height="26" rx="2" fill="black"/>
<path d="M14.8848 9.39453H12.1426V17H11.0234V9.39453H8.28711V8.46875H14.8848V9.39453ZM15.1074 13.7715C15.1074 13.1504 15.2285 12.5918 15.4707 12.0957C15.7168 11.5996 16.0566 11.2168 16.4902 10.9473C16.9277 10.6777 17.4258 10.543 17.9844 10.543C18.8477 10.543 19.5449 10.8418 20.0762 11.4395C20.6113 12.0371 20.8789 12.832 20.8789 13.8242V13.9004C20.8789 14.5176 20.7598 15.0723 20.5215 15.5645C20.2871 16.0527 19.9492 16.4336 19.5078 16.707C19.0703 16.9805 18.5664 17.1172 17.9961 17.1172C17.1367 17.1172 16.4395 16.8184 15.9043 16.2207C15.373 15.623 15.1074 14.832 15.1074 13.8477V13.7715ZM16.1973 13.9004C16.1973 14.6035 16.3594 15.168 16.6836 15.5938C17.0117 16.0195 17.4492 16.2324 17.9961 16.2324C18.5469 16.2324 18.9844 16.0176 19.3086 15.5879C19.6328 15.1543 19.7949 14.5488 19.7949 13.7715C19.7949 13.0762 19.6289 12.5137 19.2969 12.084C18.9688 11.6504 18.5312 11.4336 17.9844 11.4336C17.4492 11.4336 17.0176 11.6465 16.6895 12.0723C16.3613 12.498 16.1973 13.1074 16.1973 13.9004ZM21.9512 13.7715C21.9512 13.1504 22.0723 12.5918 22.3145 12.0957C22.5605 11.5996 22.9004 11.2168 23.334 10.9473C23.7715 10.6777 24.2695 10.543 24.8281 10.543C25.6914 10.543 26.3887 10.8418 26.9199 11.4395C27.4551 12.0371 27.7227 12.832 27.7227 13.8242V13.9004C27.7227 14.5176 27.6035 15.0723 27.3652 15.5645C27.1309 16.0527 26.793 16.4336 26.3516 16.707C25.9141 16.9805 25.4102 17.1172 24.8398 17.1172C23.9805 17.1172 23.2832 16.8184 22.748 16.2207C22.2168 15.623 21.9512 14.832 21.9512 13.8477V13.7715ZM23.041 13.9004C23.041 14.6035 23.2031 15.168 23.5273 15.5938C23.8555 16.0195 24.293 16.2324 24.8398 16.2324C25.3906 16.2324 25.8281 16.0176 26.1523 15.5879C26.4766 15.1543 26.6387 14.5488 26.6387 13.7715C26.6387 13.0762 26.4727 12.5137 26.1406 12.084C25.8125 11.6504 25.375 11.4336 24.8281 11.4336C24.293 11.4336 23.8613 11.6465 23.5332 12.0723C23.2051 12.498 23.041 13.1074 23.041 13.9004ZM30.2598 17H29.1758V8H30.2598V17ZM33.4707 9.125V10.6602H34.6543V11.498H33.4707V15.4297C33.4707 15.6836 33.5234 15.875 33.6289 16.0039C33.7344 16.1289 33.9141 16.1914 34.168 16.1914C34.293 16.1914 34.4648 16.168 34.6836 16.1211V17C34.3984 17.0781 34.1211 17.1172 33.8516 17.1172C33.3672 17.1172 33.002 16.9707 32.7559 16.6777C32.5098 16.3848 32.3867 15.9688 32.3867 15.4297V11.498H31.2324V10.6602H32.3867V9.125H33.4707ZM37.1035 17H36.0195V10.6602H37.1035V17ZM35.9316 8.97852C35.9316 8.80273 35.9844 8.6543 36.0898 8.5332C36.1992 8.41211 36.3594 8.35156 36.5703 8.35156C36.7812 8.35156 36.9414 8.41211 37.0508 8.5332C37.1602 8.6543 37.2148 8.80273 37.2148 8.97852C37.2148 9.1543 37.1602 9.30078 37.0508 9.41797C36.9414 9.53516 36.7812 9.59375 36.5703 9.59375C36.3594 9.59375 36.1992 9.53516 36.0898 9.41797C35.9844 9.30078 35.9316 9.1543 35.9316 8.97852ZM44.1992 13.9004C44.1992 14.8652 43.9785 15.6426 43.5371 16.2324C43.0957 16.8223 42.498 17.1172 41.7441 17.1172C40.9746 17.1172 40.3691 16.873 39.9277 16.3848V19.4375H38.8438V10.6602H39.834L39.8867 11.3633C40.3281 10.8164 40.9414 10.543 41.7266 10.543C42.4883 10.543 43.0898 10.8301 43.5312 11.4043C43.9766 11.9785 44.1992 12.7773 44.1992 13.8008V13.9004ZM43.1152 13.7773C43.1152 13.0625 42.9629 12.498 42.6582 12.084C42.3535 11.6699 41.9355 11.4629 41.4043 11.4629C40.748 11.4629 40.2559 11.7539 39.9277 12.3359V15.3652C40.252 15.9434 40.748 16.2324 41.416 16.2324C41.9355 16.2324 42.3477 16.0273 42.6523 15.6172C42.9609 15.2031 43.1152 14.5898 43.1152 13.7773Z" fill="white"/>
</svg>
