<svg width="24" height="24" viewBox="0 0 24 24" fill="none" xmlns="http://www.w3.org/2000/svg">
<g id="Icon=Text More">
<path id="Vector" d="M13.55 19H15.55L10.55 5H8.55005L3.55005 19H5.55005L6.95005 15H12.05L13.55 19ZM7.65005 13L9.55005 7.8L11.45 13H7.65005ZM20.4501 17.5C20.4501 17.7967 20.3621 18.0867 20.1973 18.3334C20.0324 18.58 19.7982 18.7723 19.5241 18.8858C19.25 18.9993 18.9484 19.0291 18.6574 18.9712C18.3664 18.9133 18.0992 18.7704 17.8894 18.5607C17.6796 18.3509 17.5367 18.0836 17.4789 17.7926C17.421 17.5017 17.4507 17.2001 17.5642 16.926C17.6778 16.6519 17.87 16.4176 18.1167 16.2528C18.3634 16.088 18.6534 16 18.95 16C19.3479 16 19.7294 16.158 20.0107 16.4393C20.292 16.7206 20.4501 17.1022 20.4501 17.5ZM20.4501 13.5C20.4501 13.7967 20.3621 14.0867 20.1973 14.3334C20.0324 14.58 19.7982 14.7723 19.5241 14.8858C19.25 14.9994 18.9484 15.0291 18.6574 14.9712C18.3664 14.9133 18.0992 14.7704 17.8894 14.5607C17.6796 14.3509 17.5367 14.0836 17.4789 13.7926C17.421 13.5017 17.4507 13.2001 17.5642 12.926C17.6778 12.6519 17.87 12.4176 18.1167 12.2528C18.3634 12.088 18.6534 12 18.95 12C19.3479 12 19.7294 12.158 20.0107 12.4393C20.292 12.7206 20.4501 13.1022 20.4501 13.5ZM20.4501 9.5C20.4501 9.79667 20.3621 10.0867 20.1973 10.3334C20.0324 10.58 19.7982 10.7723 19.5241 10.8858C19.25 10.9994 18.9484 11.0291 18.6574 10.9712C18.3664 10.9133 18.0992 10.7704 17.8894 10.5607C17.6796 10.3509 17.5367 10.0836 17.4789 9.79264C17.421 9.50166 17.4507 9.20006 17.5642 8.92597C17.6778 8.65189 17.87 8.41762 18.1167 8.2528C18.3634 8.08797 18.6534 8 18.95 8C19.3479 8 19.7294 8.15804 20.0107 8.43934C20.292 8.72064 20.4501 9.10218 20.4501 9.5Z" fill="black"/>
</g>
</svg>
