<svg width="24" height="24" viewBox="0 0 24 24" fill="none" xmlns="http://www.w3.org/2000/svg">
<path d="M11.9999 6.66666C13.1266 6.66833 14.2179 7.06007 15.0885 7.77531C15.959 8.49054 16.555 9.48514 16.7752 10.5901L17.0714 12.0928L18.5993 12.1985C19.2659 12.2426 19.8892 12.5446 20.337 13.0404C20.7848 13.5362 21.022 14.1869 20.9982 14.8545C20.9745 15.5222 20.6917 16.1544 20.2097 16.6171C19.7278 17.0798 19.0847 17.3367 18.4166 17.3333H6.49994C5.60522 17.3339 4.74429 16.9916 4.09425 16.3768C3.44421 15.762 3.05449 14.9214 3.00526 14.0281C2.95602 13.1347 3.25101 12.2564 3.82954 11.5739C4.40808 10.8914 5.22617 10.4565 6.11554 10.3588L7.18236 10.2454L7.67794 9.29386C8.08783 8.50145 8.70792 7.83716 9.47027 7.37376C10.2326 6.91035 11.1078 6.66572 11.9999 6.66666ZM11.9999 4.66666C10.7422 4.66692 9.50874 5.01238 8.43385 5.66539C7.35897 6.3184 6.48394 7.25392 5.90411 8.36999C4.50549 8.52186 3.21831 9.20413 2.30752 10.2764C1.39673 11.3486 0.93164 12.7292 1.00799 14.1339C1.08433 15.5387 1.6963 16.8608 2.71793 17.828C3.73956 18.7952 5.0931 19.3339 6.49994 19.3333H18.4166C19.6032 19.3368 20.7446 18.8786 21.5995 18.0556C22.4543 17.2327 22.9556 16.1095 22.9973 14.9236C23.0389 13.7378 22.6177 12.5822 21.8228 11.7013C21.0278 10.8204 19.9213 10.2832 18.7374 10.2033C18.4296 8.64288 17.5894 7.23774 16.3606 6.22793C15.1318 5.21811 13.5905 4.66627 11.9999 4.66666ZM12.9997 11.9136H14.9138L11.9997 8.99999L9.08612 11.9136H10.9997V14.9136H10.9999V16H12.9999V14H12.9997V11.9136Z" fill="black"/>
</svg>
